<mxfile host="app.diagrams.net" modified="2025-04-09T15:10:00.000Z" agent="Mozilla/5.0" version="21.0.0" etag="escola-tecnica-er-diagram-v2" type="device">
  <diagram id="Escola_Tecnica_ER_V2" name="Modelo Conceitual - Escola Técnica V2">
    <mxGraphModel dx="1600" dy="900" grid="1" gridSize="10" guides="1" tooltips="1" connect="1" arrows="1" fold="1" page="1" pageScale="1" pageWidth="1169" pageHeight="827" math="0" shadow="0">
      <root>
        <mxCell id="0" />
        <mxCell id="1" parent="0" />

        <!-- Entidades -->
        <mxCell id="E1" value="Aluno" style="rounded=0;whiteSpace=wrap;html=1;fillColor=#dae8fc;strokeColor=#6c8ebf;" vertex="1" parent="1">
          <mxGeometry x="100" y="300" width="120" height="60" as="geometry" />
        </mxCell>
        <mxCell id="E2" value="Curso" style="rounded=0;whiteSpace=wrap;html=1;fillColor=#dae8fc;strokeColor=#6c8ebf;" vertex="1" parent="1">
          <mxGeometry x="700" y="80" width="120" height="60" as="geometry" />
        </mxCell>
        <mxCell id="E3" value="Turma" style="rounded=0;whiteSpace=wrap;html=1;fillColor=#dae8fc;strokeColor=#6c8ebf;" vertex="1" parent="1">
          <mxGeometry x="700" y="300" width="120" height="60" as="geometry" />
        </mxCell>
        <mxCell id="E4" value="Professor" style="rounded=0;whiteSpace=wrap;html=1;fillColor=#dae8fc;strokeColor=#6c8ebf;" vertex="1" parent="1">
          <mxGeometry x="700" y="520" width="120" height="60" as="geometry" />
        </mxCell>

        <!-- Atributos de Aluno -->
        <mxCell id="A1_1" value="id_aluno" style="ellipse;whiteSpace=wrap;html=1;fillColor=#fff2cc;strokeColor=#d6b656;fontStyle=4" vertex="1" parent="1">
          <mxGeometry x="110" y="150" width="100" height="40" as="geometry" />
        </mxCell>
        <mxCell id="A1_2" value="nome" style="ellipse;whiteSpace=wrap;html=1;fillColor=#fff2cc;strokeColor=#d6b656;" vertex="1" parent="1">
          <mxGeometry x="0" y="200" width="100" height="40" as="geometry" />
        </mxCell>
        <mxCell id="A1_3" value="rg" style="ellipse;whiteSpace=wrap;html=1;fillColor=#fff2cc;strokeColor=#d6b656;" vertex="1" parent="1">
          <mxGeometry x="0" y="250" width="100" height="40" as="geometry" />
        </mxCell>
        <mxCell id="A1_4" value="cpf" style="ellipse;whiteSpace=wrap;html=1;fillColor=#fff2cc;strokeColor=#d6b656;" vertex="1" parent="1">
          <mxGeometry x="0" y="300" width="100" height="40" as="geometry" />
        </mxCell>
        <mxCell id="A1_5" value="data_nascimento" style="ellipse;whiteSpace=wrap;html=1;fillColor=#fff2cc;strokeColor=#d6b656;" vertex="1" parent="1">
          <mxGeometry x="0" y="350" width="100" height="40" as="geometry" />
        </mxCell>
        <mxCell id="A1_6" value="email" style="ellipse;whiteSpace=wrap;html=1;fillColor=#fff2cc;strokeColor=#d6b656;" vertex="1" parent="1">
          <mxGeometry x="0" y="400" width="100" height="40" as="geometry" />
        </mxCell>
        <mxCell id="A1_7" value="telefone_contato" style="ellipse;whiteSpace=wrap;html=1;fillColor=#fff2cc;strokeColor=#d6b656;" vertex="1" parent="1">
          <mxGeometry x="110" y="450" width="100" height="40" as="geometry" />
        </mxCell>
        <mxCell id="A1_8" value="endereco_residencia" style="ellipse;whiteSpace=wrap;html=1;fillColor=#fff2cc;strokeColor=#d6b656;" vertex="1" parent="1">
          <mxGeometry x="220" y="400" width="100" height="40" as="geometry" />
        </mxCell>

        <!-- Conexões Atributos de Aluno -->
        <mxCell id="C_A1_1" value="" style="endArrow=none;html=1;rounded=0;" edge="1" parent="1" source="E1" target="A1_1">
          <mxGeometry relative="1" as="geometry"/>
        </mxCell>
        <mxCell id="C_A1_2" value="" style="endArrow=none;html=1;rounded=0;" edge="1" parent="1" source="E1" target="A1_2">
          <mxGeometry relative="1" as="geometry"/>
        </mxCell>
        <mxCell id="C_A1_3" value="" style="endArrow=none;html=1;rounded=0;" edge="1" parent="1" source="E1" target="A1_3">
          <mxGeometry relative="1" as="geometry"/>
        </mxCell>
        <mxCell id="C_A1_4" value="" style="endArrow=none;html=1;rounded=0;" edge="1" parent="1" source="E1" target="A1_4">
          <mxGeometry relative="1" as="geometry"/>
        </mxCell>
        <mxCell id="C_A1_5" value="" style="endArrow=none;html=1;rounded=0;" edge="1" parent="1" source="E1" target="A1_5">
          <mxGeometry relative="1" as="geometry"/>
        </mxCell>
        <mxCell id="C_A1_6" value="" style="endArrow=none;html=1;rounded=0;" edge="1" parent="1" source="E1" target="A1_6">
          <mxGeometry relative="1" as="geometry"/>
        </mxCell>
        <mxCell id="C_A1_7" value="" style="endArrow=none;html=1;rounded=0;" edge="1" parent="1" source="E1" target="A1_7">
          <mxGeometry relative="1" as="geometry"/>
        </mxCell>
        <mxCell id="C_A1_8" value="" style="endArrow=none;html=1;rounded=0;" edge="1" parent="1" source="E1" target="A1_8">
          <mxGeometry relative="1" as="geometry"/>
        </mxCell>

        <!-- Atributos de Curso -->
        <mxCell id="A2_1" value="cod_curso" style="ellipse;whiteSpace=wrap;html=1;fillColor=#fff2cc;strokeColor=#d6b656;fontStyle=4" vertex="1" parent="1">
          <mxGeometry x="590" y="0" width="100" height="40" as="geometry" />
        </mxCell>
        <mxCell id="A2_2" value="nome" style="ellipse;whiteSpace=wrap;html=1;fillColor=#fff2cc;strokeColor=#d6b656;" vertex="1" parent="1">
          <mxGeometry x="710" y="0" width="100" height="40" as="geometry" />
        </mxCell>
        <mxCell id="A2_3" value="descricao" style="ellipse;whiteSpace=wrap;html=1;fillColor=#fff2cc;strokeColor=#d6b656;" vertex="1" parent="1">
          <mxGeometry x="830" y="0" width="100" height="40" as="geometry" />
        </mxCell>
        <mxCell id="A2_4" value="conteudo" style="ellipse;whiteSpace=wrap;html=1;fillColor=#fff2cc;strokeColor=#d6b656;" vertex="1" parent="1">
          <mxGeometry x="890" y="50" width="100" height="40" as="geometry" />
        </mxCell>
        <mxCell id="A2_5" value="carga_horaria" style="ellipse;whiteSpace=wrap;html=1;fillColor=#fff2cc;strokeColor=#d6b656;" vertex="1" parent="1">
          <mxGeometry x="890" y="100" width="100" height="40" as="geometry" />
        </mxCell>

        <!-- Conexões Atributos de Curso -->
        <mxCell id="C_A2_1" value="" style="endArrow=none;html=1;rounded=0;" edge="1" parent="1" source="E2" target="A2_1">
          <mxGeometry relative="1" as="geometry"/>
        </mxCell>
        <mxCell id="C_A2_2" value="" style="endArrow=none;html=1;rounded=0;" edge="1" parent="1" source="E2" target="A2_2">
          <mxGeometry relative="1" as="geometry"/>
        </mxCell>
         <mxCell id="C_A2_3" value="" style="endArrow=none;html=1;rounded=0;" edge="1" parent="1" source="E2" target="A2_3">
          <mxGeometry relative="1" as="geometry"/>
        </mxCell>
         <mxCell id="C_A2_4" value="" style="endArrow=none;html=1;rounded=0;" edge="1" parent="1" source="E2" target="A2_4">
          <mxGeometry relative="1" as="geometry"/>
        </mxCell>
         <mxCell id="C_A2_5" value="" style="endArrow=none;html=1;rounded=0;" edge="1" parent="1" source="E2" target="A2_5">
          <mxGeometry relative="1" as="geometry"/>
        </mxCell>

        <!-- Atributos de Turma -->
        <mxCell id="A3_1" value="id_turma" style="ellipse;whiteSpace=wrap;html=1;fillColor=#fff2cc;strokeColor=#d6b656;fontStyle=4" vertex="1" parent="1">
          <mxGeometry x="840" y="250" width="100" height="40" as="geometry" />
        </mxCell>
        <mxCell id="A3_2" value="data_inicio" style="ellipse;whiteSpace=wrap;html=1;fillColor=#fff2cc;strokeColor=#d6b656;" vertex="1" parent="1">
          <mxGeometry x="840" y="300" width="100" height="40" as="geometry" />
        </mxCell>
        <mxCell id="A3_3" value="data_fim" style="ellipse;whiteSpace=wrap;html=1;fillColor=#fff2cc;strokeColor=#d6b656;" vertex="1" parent="1">
          <mxGeometry x="840" y="350" width="100" height="40" as="geometry" />
        </mxCell>

        <!-- Conexões Atributos de Turma -->
        <mxCell id="C_A3_1" value="" style="endArrow=none;html=1;rounded=0;" edge="1" parent="1" source="E3" target="A3_1">
          <mxGeometry relative="1" as="geometry"/>
        </mxCell>
        <mxCell id="C_A3_2" value="" style="endArrow=none;html=1;rounded=0;" edge="1" parent="1" source="E3" target="A3_2">
          <mxGeometry relative="1" as="geometry"/>
        </mxCell>
        <mxCell id="C_A3_3" value="" style="endArrow=none;html=1;rounded=0;" edge="1" parent="1" source="E3" target="A3_3">
          <mxGeometry relative="1" as="geometry"/>
        </mxCell>

        <!-- Atributos de Professor -->
        <mxCell id="A4_1" value="id_professor" style="ellipse;whiteSpace=wrap;html=1;fillColor=#fff2cc;strokeColor=#d6b656;fontStyle=4" vertex="1" parent="1">
          <mxGeometry x="840" y="470" width="100" height="40" as="geometry" />
        </mxCell>
        <mxCell id="A4_2" value="nome" style="ellipse;whiteSpace=wrap;html=1;fillColor=#fff2cc;strokeColor=#d6b656;" vertex="1" parent="1">
          <mxGeometry x="840" y="520" width="100" height="40" as="geometry" />
        </mxCell>
        <mxCell id="A4_3" value="data_nascimento" style="ellipse;whiteSpace=wrap;html=1;fillColor=#fff2cc;strokeColor=#d6b656;" vertex="1" parent="1">
          <mxGeometry x="840" y="570" width="100" height="40" as="geometry" />
        </mxCell>
        <mxCell id="A4_4" value="rg" style="ellipse;whiteSpace=wrap;html=1;fillColor=#fff2cc;strokeColor=#d6b656;" vertex="1" parent="1">
          <mxGeometry x="710" y="610" width="100" height="40" as="geometry" />
        </mxCell>
        <mxCell id="A4_5" value="cpf" style="ellipse;whiteSpace=wrap;html=1;fillColor=#fff2cc;strokeColor=#d6b656;" vertex="1" parent="1">
          <mxGeometry x="590" y="570" width="100" height="40" as="geometry" />
        </mxCell>
        <mxCell id="A4_6" value="email" style="ellipse;whiteSpace=wrap;html=1;fillColor=#fff2cc;strokeColor=#d6b656;" vertex="1" parent="1">
          <mxGeometry x="590" y="520" width="100" height="40" as="geometry" />
        </mxCell>
        <mxCell id="A4_7" value="telefones_contato" style="ellipse;whiteSpace=wrap;html=1;fillColor=#fff2cc;strokeColor=#d6b656;" vertex="1" parent="1">
          <mxGeometry x="590" y="470" width="100" height="40" as="geometry" />
        </mxCell>
        <mxCell id="A4_8" value="endereco_residencia" style="ellipse;whiteSpace=wrap;html=1;fillColor=#fff2cc;strokeColor=#d6b656;" vertex="1" parent="1">
          <mxGeometry x="710" y="660" width="100" height="40" as="geometry" />
        </mxCell>

        <!-- Conexões Atributos de Professor -->
         <mxCell id="C_A4_1" value="" style="endArrow=none;html=1;rounded=0;" edge="1" parent="1" source="E4" target="A4_1">
          <mxGeometry relative="1" as="geometry"/>
        </mxCell>
        <mxCell id="C_A4_2" value="" style="endArrow=none;html=1;rounded=0;" edge="1" parent="1" source="E4" target="A4_2">
          <mxGeometry relative="1" as="geometry"/>
        </mxCell>
        <mxCell id="C_A4_3" value="" style="endArrow=none;html=1;rounded=0;" edge="1" parent="1" source="E4" target="A4_3">
          <mxGeometry relative="1" as="geometry"/>
        </mxCell>
        <mxCell id="C_A4_4" value="" style="endArrow=none;html=1;rounded=0;" edge="1" parent="1" source="E4" target="A4_4">
          <mxGeometry relative="1" as="geometry"/>
        </mxCell>
        <mxCell id="C_A4_5" value="" style="endArrow=none;html=1;rounded=0;" edge="1" parent="1" source="E4" target="A4_5">
          <mxGeometry relative="1" as="geometry"/>
        </mxCell>
        <mxCell id="C_A4_6" value="" style="endArrow=none;html=1;rounded=0;" edge="1" parent="1" source="E4" target="A4_6">
          <mxGeometry relative="1" as="geometry"/>
        </mxCell>
        <mxCell id="C_A4_7" value="" style="endArrow=none;html=1;rounded=0;" edge="1" parent="1" source="E4" target="A4_7">
          <mxGeometry relative="1" as="geometry"/>
        </mxCell>
        <mxCell id="C_A4_8" value="" style="endArrow=none;html=1;rounded=0;" edge="1" parent="1" source="E4" target="A4_8">
          <mxGeometry relative="1" as="geometry"/>
        </mxCell>

        <!-- Relacionamentos -->
        <mxCell id="R1" value="Matricula" style="rhombus;whiteSpace=wrap;html=1;fillColor=#d5e8d4;strokeColor=#82b366;" vertex="1" parent="1">
          <mxGeometry x="400" y="300" width="120" height="60" as="geometry" />
        </mxCell>
        <mxCell id="R2" value="Oferecimento" style="rhombus;whiteSpace=wrap;html=1;fillColor=#d5e8d4;strokeColor=#82b366;" vertex="1" parent="1">
          <mxGeometry x="700" y="190" width="120" height="60" as="geometry" />
        </mxCell>
        <mxCell id="R3" value="Ministra" style="rhombus;whiteSpace=wrap;html=1;fillColor=#d5e8d4;strokeColor=#82b366;" vertex="1" parent="1">
          <mxGeometry x="700" y="410" width="120" height="60" as="geometry" />
        </mxCell>

        <!-- Atributos de Relacionamento Matricula -->
         <mxCell id="AR1_1" value="status_aprovacao" style="ellipse;whiteSpace=wrap;html=1;fillColor=#fff2cc;strokeColor=#d6b656;dashed=1;" vertex="1" parent="1">
          <mxGeometry x="410" y="220" width="100" height="40" as="geometry" />
        </mxCell>
        <mxCell id="AR1_2" value="media_notas" style="ellipse;whiteSpace=wrap;html=1;fillColor=#fff2cc;strokeColor=#d6b656;dashed=1;" vertex="1" parent="1">
          <mxGeometry x="530" y="250" width="100" height="40" as="geometry" />
        </mxCell>

        <!-- Conexões Atributos de Matricula -->
         <mxCell id="C_AR1_1" value="" style="endArrow=none;html=1;rounded=0;dashed=1;" edge="1" parent="1" source="R1" target="AR1_1">
            <mxGeometry relative="1" as="geometry"/>
        </mxCell>
        <mxCell id="C_AR1_2" value="" style="endArrow=none;html=1;rounded=0;dashed=1;" edge="1" parent="1" source="R1" target="AR1_2">
            <mxGeometry relative="1" as="geometry"/>
        </mxCell>

        <!-- Conexões Entidade-Relacionamento -->
        <mxCell id="C_E1_R1" value="" style="endArrow=none;html=1;rounded=0;" edge="1" parent="1" source="E1" target="R1">
          <mxGeometry relative="1" as="geometry"/>
        </mxCell>
        <mxCell id="Card_E1_R1" value="N" style="text;html=1;strokeColor=none;fillColor=none;align=center;verticalAlign=middle;whiteSpace=wrap;rounded=0;" vertex="1" parent="1">
          <mxGeometry x="370" y="305" width="30" height="20" as="geometry" />
        </mxCell>

        <mxCell id="C_R1_E3" value="" style="endArrow=none;html=1;rounded=0;" edge="1" parent="1" source="R1" target="E3">
          <mxGeometry relative="1" as="geometry"/>
        </mxCell>
         <mxCell id="Card_R1_E3" value="M" style="text;html=1;strokeColor=none;fillColor=none;align=center;verticalAlign=middle;whiteSpace=wrap;rounded=0;" vertex="1" parent="1">
          <mxGeometry x="530" y="305" width="30" height="20" as="geometry" />
        </mxCell>

        <mxCell id="C_E2_R2" value="" style="endArrow=none;html=1;rounded=0;" edge="1" parent="1" source="E2" target="R2">
          <mxGeometry relative="1" as="geometry"/>
        </mxCell>
        <mxCell id="Card_E2_R2" value="1" style="text;html=1;strokeColor=none;fillColor=none;align=center;verticalAlign=middle;whiteSpace=wrap;rounded=0;" vertex="1" parent="1">
          <mxGeometry x="730" y="160" width="30" height="20" as="geometry" />
        </mxCell>

        <mxCell id="C_R2_E3" value="" style="endArrow=none;html=1;rounded=0;" edge="1" parent="1" source="R2" target="E3">
          <mxGeometry relative="1" as="geometry"/>
        </mxCell>
        <mxCell id="Card_R2_E3" value="N" style="text;html=1;strokeColor=none;fillColor=none;align=center;verticalAlign=middle;whiteSpace=wrap;rounded=0;" vertex="1" parent="1">
          <mxGeometry x="730" y="260" width="30" height="20" as="geometry" />
        </mxCell>


        <mxCell id="C_E4_R3" value="" style="endArrow=none;html=1;rounded=0;" edge="1" parent="1" source="E4" target="R3">
          <mxGeometry relative="1" as="geometry"/>
        </mxCell>
         <mxCell id="Card_E4_R3" value="1" style="text;html=1;strokeColor=none;fillColor=none;align=center;verticalAlign=middle;whiteSpace=wrap;rounded=0;" vertex="1" parent="1">
          <mxGeometry x="730" y="480" width="30" height="20" as="geometry" />
        </mxCell>

        <mxCell id="C_R3_E3" value="" style="endArrow=none;html=1;rounded=0;" edge="1" parent="1" source="R3" target="E3">
          <mxGeometry relative="1" as="geometry"/>
        </mxCell>
        <mxCell id="Card_R3_E3" value="N" style="text;html=1;strokeColor=none;fillColor=none;align=center;verticalAlign=middle;whiteSpace=wrap;rounded=0;" vertex="1" parent="1">
          <mxGeometry x="730" y="380" width="30" height="20" as="geometry" />
        </mxCell>

        <!-- Título do Diagrama -->
        <mxCell id="Title" value="DIAGRAMA ENTIDADE-RELACIONAMENTO: ESCOLA TÉCNICA (V2)" style="text;html=1;strokeColor=none;fillColor=none;align=center;verticalAlign=middle;whiteSpace=wrap;rounded=0;fontSize=16;fontStyle=1" vertex="1" parent="1">
          <mxGeometry x="250" y="20" width="600" height="30" as="geometry" />
        </mxCell>

      </root>
    </mxGraphModel>
  </diagram>
</mxfile>
